<svg width="98.77" height="26" viewBox="0 0 179 48" fill="none" xmlns="http://www.w3.org/2000/svg"><path d="M144.057 11.5952C144.059 13.8886 143.381 16.1311 142.108 18.039C140.836 19.9468 139.026 21.4343 136.908 22.3131C134.789 23.1918 132.458 23.4224 130.208 22.9756C127.959 22.5288 125.893 21.4247 124.271 19.803C122.649 18.1814 121.545 16.1151 121.099 13.8657C120.652 11.6163 120.882 9.28489 121.761 7.16658C122.64 5.04827 124.127 3.23827 126.035 1.96569C127.943 0.693102 130.186 0.0151307 132.479 0.0175848C135.548 0.0208695 138.491 1.24171 140.662 3.41222C142.832 5.58274 144.053 8.52565 144.057 11.5952Z" fill="#FF0042"></path><path d="M144.057 34.7627C144.059 37.0561 143.381 39.2986 142.108 41.2065C140.836 43.1143 139.026 44.6018 136.908 45.4805C134.789 46.3593 132.458 46.5899 130.208 46.1431C127.959 45.6962 125.893 44.5921 124.271 42.9705C122.649 41.3489 121.545 39.2826 121.099 37.0332C120.652 34.7838 120.882 32.4524 121.761 30.3341C122.64 28.2157 124.127 26.4058 126.035 25.1332C127.943 23.8606 130.186 23.1826 132.479 23.1851C135.55 23.1851 138.494 24.4048 140.666 26.5761C142.837 28.7473 144.057 31.6921 144.057 34.7627Z" fill="#FF0042"></path><path class="logo_line" fill-rule="evenodd" clip-rule="evenodd" d="M154.48 46.3405H144.057L154.604 0.0175781H165.028L154.48 46.3405Z" fill="#253844"></path><path class="logo_line" fill-rule="evenodd" clip-rule="evenodd" d="M167.994 46.3405H157.57L168.13 0.0175781H178.541L167.994 46.3405Z" fill="#253844"></path><path class="kotak_image" fill-rule="evenodd" clip-rule="evenodd" d="M34.2986 41.2899C30.6628 41.2899 29.1737 38.2373 29.1737 34.8248C29.1737 31.4123 30.6628 28.3348 34.2986 28.3348C37.9345 28.3348 39.4236 31.3875 39.4236 34.8248C39.4236 38.2621 37.9345 41.2899 34.2986 41.2899ZM34.2986 46.8491C41.8309 46.8491 47.5763 42.4439 47.5763 34.8248C47.5763 27.2056 41.8309 22.7632 34.2986 22.7632C26.7663 22.7632 21.0085 27.1808 21.0085 34.8248C21.0085 42.4687 26.7539 46.8491 34.2986 46.8491Z" fill="#7B9EAF"></path><path class="kotak_image" fill-rule="evenodd" clip-rule="evenodd" d="M46.8564 28.8564H51.3733V38.2377C51.3733 43.7225 53.0858 46.8495 60.1341 46.8495C61.7967 46.8196 63.4552 46.6745 65.0977 46.4152L64.8372 41.2406C64.0449 41.4118 63.2396 41.5155 62.4298 41.5509C59.948 41.5509 59.2779 40.1362 59.2779 37.3566V28.8564H64.7999V23.2972H59.2655V15.3306L51.4974 18.1226V23.2972H46.8564V28.8564Z" fill="#7B9EAF"></path><path class="kotak_image" fill-rule="evenodd" clip-rule="evenodd" d="M92.3977 46.3279H100.29V34.924H100.377L106.693 46.3279H116.248L107.648 33.8569L115.59 23.2968H106.954L100.377 32.9758H100.29V15.355L92.3977 18.1098V46.3279Z" fill="#7B9EAF"></path><path class="kotak_image" fill-rule="evenodd" clip-rule="evenodd" d="M0 46.3279H7.89215V34.924H7.97901L14.2952 46.3279H23.8502L15.2507 33.8569L23.1925 23.2968H14.5558L7.97901 32.9758H7.89215V15.355L0 17.9733V46.3279Z" fill="#7B9EAF"></path><path class="kotak_image" fill-rule="evenodd" clip-rule="evenodd" d="M73.4864 39.0564C73.4864 36.8228 75.6208 35.9665 78.326 35.9665C79.5669 35.9665 80.6837 36.0534 81.7012 36.103C81.738 36.7909 81.6387 37.4793 81.409 38.1288C81.1794 38.7783 80.8238 39.376 80.3627 39.8878C79.9016 40.3996 79.344 40.8154 78.722 41.1114C78.0999 41.4074 77.4256 41.5777 76.7376 41.6127C74.8762 41.6127 73.4492 40.6572 73.4492 39.0564H73.4864ZM89.581 46.4398C89.2703 44.6327 89.1291 42.8007 89.1591 40.9674V32.2811C89.1591 25.1707 84.0465 22.6268 78.1522 22.6268C74.9947 22.5604 71.8558 23.1258 68.9199 24.2896L69.0564 29.7372C71.3178 28.5304 73.8524 27.9277 76.415 27.9875C79.3063 27.9875 81.664 28.8437 81.7012 32.0205C80.4703 31.8199 79.2256 31.7162 77.9785 31.7102C73.7098 31.7102 66.041 32.5541 66.041 39.6768C66.041 44.7273 70.1236 47.0106 74.7273 47.0106C76.2205 47.0732 77.7009 46.7113 78.9968 45.9667C80.2926 45.2222 81.3508 44.1255 82.0487 42.8039H82.1355C82.1355 44.0448 82.272 45.2237 82.3093 46.5266L89.581 46.4398Z" fill="#7B9EAF"></path></svg>